<mxfile host="app.diagrams.net" agent="Mozilla/5.0 (Windows NT 10.0; Win64; x64) AppleWebKit/537.36 (KHTML, like Gecko) Chrome/136.0.0.0 Safari/537.36" version="27.0.8">
  <diagram name="Page-1" id="ah4-4o1aJsZ9hj4hK-Dv">
    <mxGraphModel dx="1722" dy="954" grid="1" gridSize="10" guides="1" tooltips="1" connect="1" arrows="1" fold="1" page="1" pageScale="1" pageWidth="827" pageHeight="1169" math="0" shadow="0">
      <root>
        <mxCell id="0" />
        <mxCell id="1" parent="0" />
        <mxCell id="g1hJZHoWsPPVvcOoxAAN-13" value="&lt;font&gt;Informacijski sustav za praćenje i analizu dionicaa&lt;/font&gt;" style="rounded=0;whiteSpace=wrap;html=1;fontColor=light-dark(#000000,#000000);fillColor=light-dark(#FFFFFF,#E0E0E0);strokeColor=light-dark(#000000,#000000);" parent="1" vertex="1">
          <mxGeometry x="320" y="210" width="160" height="60" as="geometry" />
        </mxCell>
        <mxCell id="K3CmXNry2SXfEpvoEd8a-2" value="&lt;font style=&quot;color: light-dark(rgb(0, 0, 0), rgb(0, 0, 0));&quot;&gt;1. Prikupljanje i obrada podataka&lt;/font&gt;" style="rounded=1;whiteSpace=wrap;html=1;fillColor=light-dark(#FFFFFF,#FFFFFF);" vertex="1" parent="1">
          <mxGeometry x="130" y="350" width="120" height="60" as="geometry" />
        </mxCell>
        <mxCell id="K3CmXNry2SXfEpvoEd8a-4" value="&lt;font style=&quot;color: light-dark(rgb(0, 0, 0), rgb(0, 0, 0));&quot;&gt;2. Analiza tržišta&lt;/font&gt;" style="rounded=1;whiteSpace=wrap;html=1;fillColor=light-dark(#FFFFFF,#FFFFFF);" vertex="1" parent="1">
          <mxGeometry x="290" y="350" width="120" height="60" as="geometry" />
        </mxCell>
        <mxCell id="K3CmXNry2SXfEpvoEd8a-5" value="&lt;font style=&quot;color: light-dark(rgb(0, 0, 0), rgb(0, 0, 0));&quot;&gt;3. Upravljanje korisničkim iskustvom&lt;/font&gt;" style="rounded=1;whiteSpace=wrap;html=1;fillColor=light-dark(#FFFFFF,#FFFFFF);" vertex="1" parent="1">
          <mxGeometry x="450" y="350" width="120" height="60" as="geometry" />
        </mxCell>
        <mxCell id="K3CmXNry2SXfEpvoEd8a-6" value="&lt;font style=&quot;color: light-dark(rgb(0, 0, 0), rgb(0, 0, 0));&quot;&gt;4. Administracija i održavanje sustava&lt;/font&gt;" style="rounded=1;whiteSpace=wrap;html=1;fillColor=light-dark(#FFFFFF,#FFFFFF);" vertex="1" parent="1">
          <mxGeometry x="610" y="350" width="120" height="60" as="geometry" />
        </mxCell>
        <mxCell id="K3CmXNry2SXfEpvoEd8a-7" value="&lt;font style=&quot;color: light-dark(rgb(0, 0, 0), rgb(0, 0, 0));&quot;&gt;1.1. Dohvat cijena u stvarnom vremenu&lt;/font&gt;" style="rounded=1;whiteSpace=wrap;html=1;fillColor=light-dark(#FFFFFF,#FFFFFF);" vertex="1" parent="1">
          <mxGeometry x="170" y="470" width="120" height="60" as="geometry" />
        </mxCell>
        <mxCell id="K3CmXNry2SXfEpvoEd8a-8" value="&lt;font style=&quot;color: light-dark(rgb(0, 0, 0), rgb(0, 0, 0));&quot;&gt;1.2. Učitavanje prijašnjih podataka&lt;/font&gt;" style="rounded=1;whiteSpace=wrap;html=1;fillColor=light-dark(#FFFFFF,#FFFFFF);" vertex="1" parent="1">
          <mxGeometry x="170" y="570" width="120" height="60" as="geometry" />
        </mxCell>
        <mxCell id="K3CmXNry2SXfEpvoEd8a-9" value="&lt;font style=&quot;color: light-dark(rgb(0, 0, 0), rgb(0, 0, 0));&quot;&gt;1.3. Validacija i filtriranje podataka&lt;/font&gt;" style="rounded=1;whiteSpace=wrap;html=1;fillColor=light-dark(#FFFFFF,#FFFFFF);" vertex="1" parent="1">
          <mxGeometry x="170" y="670" width="120" height="60" as="geometry" />
        </mxCell>
        <mxCell id="K3CmXNry2SXfEpvoEd8a-10" value="&lt;font style=&quot;color: light-dark(rgb(0, 0, 0), rgb(0, 0, 0));&quot;&gt;2.1. Tehnička analiza&lt;/font&gt;" style="rounded=1;whiteSpace=wrap;html=1;fillColor=light-dark(#FFFFFF,#FFFFFF);" vertex="1" parent="1">
          <mxGeometry x="330" y="470" width="120" height="60" as="geometry" />
        </mxCell>
        <mxCell id="K3CmXNry2SXfEpvoEd8a-11" value="&lt;font style=&quot;color: light-dark(rgb(0, 0, 0), rgb(0, 0, 0));&quot;&gt;2.2. Temeljna analiza&lt;/font&gt;" style="rounded=1;whiteSpace=wrap;html=1;fillColor=light-dark(#FFFFFF,#FFFFFF);" vertex="1" parent="1">
          <mxGeometry x="330" y="570" width="120" height="60" as="geometry" />
        </mxCell>
        <mxCell id="K3CmXNry2SXfEpvoEd8a-12" value="&lt;font style=&quot;color: light-dark(rgb(0, 0, 0), rgb(0, 0, 0));&quot;&gt;2.3. Predviđanje trendova&lt;/font&gt;" style="rounded=1;whiteSpace=wrap;html=1;fillColor=light-dark(#FFFFFF,#FFFFFF);" vertex="1" parent="1">
          <mxGeometry x="330" y="670" width="120" height="60" as="geometry" />
        </mxCell>
        <mxCell id="K3CmXNry2SXfEpvoEd8a-13" value="&lt;font style=&quot;color: light-dark(rgb(0, 0, 0), rgb(0, 0, 0));&quot;&gt;3.1. Upravljanje korisničkim računima&lt;/font&gt;" style="rounded=1;whiteSpace=wrap;html=1;fillColor=light-dark(#FFFFFF,#FFFFFF);" vertex="1" parent="1">
          <mxGeometry x="500" y="470" width="120" height="60" as="geometry" />
        </mxCell>
        <mxCell id="K3CmXNry2SXfEpvoEd8a-14" value="&lt;font style=&quot;color: light-dark(rgb(0, 0, 0), rgb(0, 0, 0));&quot;&gt;3.2. Notifikacije i upozorenja&lt;/font&gt;" style="rounded=1;whiteSpace=wrap;html=1;fillColor=light-dark(#FFFFFF,#FFFFFF);" vertex="1" parent="1">
          <mxGeometry x="500" y="570" width="120" height="60" as="geometry" />
        </mxCell>
        <mxCell id="K3CmXNry2SXfEpvoEd8a-16" value="&lt;font style=&quot;color: light-dark(rgb(0, 0, 0), rgb(0, 0, 0));&quot;&gt;4.1. Upravljanje bazom podataka&lt;/font&gt;" style="rounded=1;whiteSpace=wrap;html=1;fillColor=light-dark(#FFFFFF,#FFFFFF);" vertex="1" parent="1">
          <mxGeometry x="670" y="470" width="120" height="60" as="geometry" />
        </mxCell>
        <mxCell id="K3CmXNry2SXfEpvoEd8a-17" value="&lt;font style=&quot;color: light-dark(rgb(0, 0, 0), rgb(0, 0, 0));&quot;&gt;3.3. Ažuriranje podataka&lt;/font&gt;" style="rounded=1;whiteSpace=wrap;html=1;fillColor=light-dark(#FFFFFF,#FFFFFF);" vertex="1" parent="1">
          <mxGeometry x="500" y="670" width="120" height="60" as="geometry" />
        </mxCell>
        <mxCell id="K3CmXNry2SXfEpvoEd8a-19" value="&lt;font style=&quot;color: light-dark(rgb(0, 0, 0), rgb(0, 0, 0));&quot;&gt;4.2. Dodavanje novih izvora podataka&amp;nbsp;&lt;/font&gt;" style="rounded=1;whiteSpace=wrap;html=1;fillColor=light-dark(#FFFFFF,#FFFFFF);" vertex="1" parent="1">
          <mxGeometry x="670" y="570" width="120" height="60" as="geometry" />
        </mxCell>
        <mxCell id="K3CmXNry2SXfEpvoEd8a-20" value="" style="shape=link;html=1;rounded=0;entryX=0.5;entryY=1;entryDx=0;entryDy=0;" edge="1" parent="1" target="g1hJZHoWsPPVvcOoxAAN-13">
          <mxGeometry width="100" relative="1" as="geometry">
            <mxPoint x="400" y="320" as="sourcePoint" />
            <mxPoint x="460" y="590" as="targetPoint" />
          </mxGeometry>
        </mxCell>
        <mxCell id="K3CmXNry2SXfEpvoEd8a-21" value="" style="shape=link;html=1;rounded=0;" edge="1" parent="1">
          <mxGeometry width="100" relative="1" as="geometry">
            <mxPoint x="190" y="320" as="sourcePoint" />
            <mxPoint x="670" y="320" as="targetPoint" />
          </mxGeometry>
        </mxCell>
        <mxCell id="K3CmXNry2SXfEpvoEd8a-22" value="" style="shape=link;html=1;rounded=0;exitX=0.5;exitY=0;exitDx=0;exitDy=0;" edge="1" parent="1" source="K3CmXNry2SXfEpvoEd8a-2">
          <mxGeometry width="100" relative="1" as="geometry">
            <mxPoint x="90" y="320" as="sourcePoint" />
            <mxPoint x="190" y="320" as="targetPoint" />
          </mxGeometry>
        </mxCell>
        <mxCell id="K3CmXNry2SXfEpvoEd8a-23" value="" style="shape=link;html=1;rounded=0;entryX=0.5;entryY=0;entryDx=0;entryDy=0;" edge="1" parent="1" target="K3CmXNry2SXfEpvoEd8a-4">
          <mxGeometry width="100" relative="1" as="geometry">
            <mxPoint x="350" y="320" as="sourcePoint" />
            <mxPoint x="450" y="330" as="targetPoint" />
          </mxGeometry>
        </mxCell>
        <mxCell id="K3CmXNry2SXfEpvoEd8a-24" value="" style="shape=link;html=1;rounded=0;entryX=0.5;entryY=0;entryDx=0;entryDy=0;" edge="1" parent="1" target="K3CmXNry2SXfEpvoEd8a-5">
          <mxGeometry width="100" relative="1" as="geometry">
            <mxPoint x="510" y="320" as="sourcePoint" />
            <mxPoint x="610" y="330" as="targetPoint" />
          </mxGeometry>
        </mxCell>
        <mxCell id="K3CmXNry2SXfEpvoEd8a-26" value="" style="shape=link;html=1;rounded=0;exitX=0.5;exitY=0;exitDx=0;exitDy=0;" edge="1" parent="1" source="K3CmXNry2SXfEpvoEd8a-6">
          <mxGeometry width="100" relative="1" as="geometry">
            <mxPoint x="360" y="540" as="sourcePoint" />
            <mxPoint x="670" y="320" as="targetPoint" />
          </mxGeometry>
        </mxCell>
        <mxCell id="K3CmXNry2SXfEpvoEd8a-27" value="" style="shape=link;html=1;rounded=0;exitX=0.115;exitY=1.017;exitDx=0;exitDy=0;exitPerimeter=0;" edge="1" parent="1" source="K3CmXNry2SXfEpvoEd8a-2">
          <mxGeometry width="100" relative="1" as="geometry">
            <mxPoint x="140" y="440" as="sourcePoint" />
            <mxPoint x="144" y="700" as="targetPoint" />
          </mxGeometry>
        </mxCell>
        <mxCell id="K3CmXNry2SXfEpvoEd8a-28" value="" style="shape=link;html=1;rounded=0;entryX=0;entryY=0.5;entryDx=0;entryDy=0;" edge="1" parent="1" target="K3CmXNry2SXfEpvoEd8a-9">
          <mxGeometry width="100" relative="1" as="geometry">
            <mxPoint x="140" y="700" as="sourcePoint" />
            <mxPoint x="170" y="710" as="targetPoint" />
          </mxGeometry>
        </mxCell>
        <mxCell id="K3CmXNry2SXfEpvoEd8a-29" value="" style="shape=link;html=1;rounded=0;" edge="1" parent="1">
          <mxGeometry width="100" relative="1" as="geometry">
            <mxPoint x="140" y="600" as="sourcePoint" />
            <mxPoint x="170" y="600" as="targetPoint" />
          </mxGeometry>
        </mxCell>
        <mxCell id="K3CmXNry2SXfEpvoEd8a-30" value="" style="shape=link;html=1;rounded=0;" edge="1" parent="1">
          <mxGeometry width="100" relative="1" as="geometry">
            <mxPoint x="140" y="500" as="sourcePoint" />
            <mxPoint x="190" y="500" as="targetPoint" />
          </mxGeometry>
        </mxCell>
        <mxCell id="K3CmXNry2SXfEpvoEd8a-31" value="" style="shape=link;html=1;rounded=0;" edge="1" parent="1">
          <mxGeometry width="100" relative="1" as="geometry">
            <mxPoint x="310" y="411" as="sourcePoint" />
            <mxPoint x="310" y="700" as="targetPoint" />
          </mxGeometry>
        </mxCell>
        <mxCell id="K3CmXNry2SXfEpvoEd8a-32" value="" style="shape=link;html=1;rounded=0;entryX=0;entryY=0.5;entryDx=0;entryDy=0;" edge="1" parent="1" target="K3CmXNry2SXfEpvoEd8a-12">
          <mxGeometry width="100" relative="1" as="geometry">
            <mxPoint x="310" y="700" as="sourcePoint" />
            <mxPoint x="340" y="780" as="targetPoint" />
          </mxGeometry>
        </mxCell>
        <mxCell id="K3CmXNry2SXfEpvoEd8a-33" value="" style="shape=link;html=1;rounded=0;entryX=0;entryY=0.5;entryDx=0;entryDy=0;" edge="1" parent="1" target="K3CmXNry2SXfEpvoEd8a-11">
          <mxGeometry width="100" relative="1" as="geometry">
            <mxPoint x="310" y="600" as="sourcePoint" />
            <mxPoint x="440" y="660" as="targetPoint" />
          </mxGeometry>
        </mxCell>
        <mxCell id="K3CmXNry2SXfEpvoEd8a-34" value="" style="shape=link;html=1;rounded=0;entryX=0;entryY=0.5;entryDx=0;entryDy=0;" edge="1" parent="1" target="K3CmXNry2SXfEpvoEd8a-10">
          <mxGeometry width="100" relative="1" as="geometry">
            <mxPoint x="310" y="500" as="sourcePoint" />
            <mxPoint x="440" y="550" as="targetPoint" />
          </mxGeometry>
        </mxCell>
        <mxCell id="K3CmXNry2SXfEpvoEd8a-36" value="" style="shape=link;html=1;rounded=0;exitX=0.25;exitY=1;exitDx=0;exitDy=0;" edge="1" parent="1" source="K3CmXNry2SXfEpvoEd8a-5">
          <mxGeometry width="100" relative="1" as="geometry">
            <mxPoint x="470" y="420" as="sourcePoint" />
            <mxPoint x="480" y="700" as="targetPoint" />
          </mxGeometry>
        </mxCell>
        <mxCell id="K3CmXNry2SXfEpvoEd8a-37" value="" style="shape=link;html=1;rounded=0;entryX=0;entryY=0.5;entryDx=0;entryDy=0;" edge="1" parent="1" target="K3CmXNry2SXfEpvoEd8a-17">
          <mxGeometry width="100" relative="1" as="geometry">
            <mxPoint x="480" y="700" as="sourcePoint" />
            <mxPoint x="460" y="780" as="targetPoint" />
          </mxGeometry>
        </mxCell>
        <mxCell id="K3CmXNry2SXfEpvoEd8a-38" value="" style="shape=link;html=1;rounded=0;entryX=0;entryY=0.5;entryDx=0;entryDy=0;" edge="1" parent="1" target="K3CmXNry2SXfEpvoEd8a-14">
          <mxGeometry width="100" relative="1" as="geometry">
            <mxPoint x="480" y="600" as="sourcePoint" />
            <mxPoint x="610" y="650" as="targetPoint" />
          </mxGeometry>
        </mxCell>
        <mxCell id="K3CmXNry2SXfEpvoEd8a-39" value="" style="shape=link;html=1;rounded=0;entryX=0;entryY=0.5;entryDx=0;entryDy=0;" edge="1" parent="1" target="K3CmXNry2SXfEpvoEd8a-13">
          <mxGeometry width="100" relative="1" as="geometry">
            <mxPoint x="480" y="500" as="sourcePoint" />
            <mxPoint x="610" y="540" as="targetPoint" />
          </mxGeometry>
        </mxCell>
        <mxCell id="K3CmXNry2SXfEpvoEd8a-40" value="" style="shape=link;html=1;rounded=0;exitX=0.25;exitY=1;exitDx=0;exitDy=0;" edge="1" parent="1" source="K3CmXNry2SXfEpvoEd8a-6">
          <mxGeometry width="100" relative="1" as="geometry">
            <mxPoint x="630" y="460" as="sourcePoint" />
            <mxPoint x="640" y="600" as="targetPoint" />
          </mxGeometry>
        </mxCell>
        <mxCell id="K3CmXNry2SXfEpvoEd8a-41" value="" style="shape=link;html=1;rounded=0;entryX=0;entryY=0.5;entryDx=0;entryDy=0;" edge="1" parent="1" target="K3CmXNry2SXfEpvoEd8a-19">
          <mxGeometry width="100" relative="1" as="geometry">
            <mxPoint x="640" y="600" as="sourcePoint" />
            <mxPoint x="760" y="670" as="targetPoint" />
          </mxGeometry>
        </mxCell>
        <mxCell id="K3CmXNry2SXfEpvoEd8a-42" value="" style="shape=link;html=1;rounded=0;entryX=0;entryY=0.5;entryDx=0;entryDy=0;" edge="1" parent="1" target="K3CmXNry2SXfEpvoEd8a-16">
          <mxGeometry width="100" relative="1" as="geometry">
            <mxPoint x="640" y="500" as="sourcePoint" />
            <mxPoint x="780" y="460" as="targetPoint" />
          </mxGeometry>
        </mxCell>
      </root>
    </mxGraphModel>
  </diagram>
</mxfile>
